{"title":"Cottage.Country.2013 BRRip XViD juggs","uid":8642387,"size":744060533,"categoryP":"video","categoryS":"movies","magnet":"?xt=urn:btih:abee1d6d76c653fe48155a0f9c7f2d889b9a4058&amp;dn=Cottage.Country.2013+BRRip+XViD+juggs&amp;tr=udp%3A%2F%2Ftracker.openbittorrent.com%3A80&amp;tr=udp%3A%2F%2Fopen.demonii.com%3A1337&amp;tr=udp%3A%2F%2Ftracker.coppersurfer.tk%3A6969&amp;tr=udp%3A%2F%2Fexodus.desync.com%3A6969","seeders":4,"leechers":3,"uploader":"juggs99","files":3,"time":1372900702,"description":"Source : iNVANDRAREN(Thanks)\n &lt;a href=&quot;\nhttp://www.imdb.com/title/tt2072933/&quot; rel=&quot;nofollow&quot; target=&quot;_NEW&quot;&gt;\nhttp://www.imdb.com/title/tt2072933/&lt;/a&gt;\n\normat                                   : AVI\nFormat/Info                              : Audio Video Interleave\nFile size                                : 702 MiB\nDuration                                 : 1h 31mn\nOverall bit rate                         : 1 074 Kbps\nWriting library                          : VirtualDub build 32842/release\n\nVideo\nID                                       : 0\nFormat                                   : MPEG-4 Visual\nFormat profile                           : Advanced Simple@L5\nFormat settings, BVOP                    : 2\nFormat settings, QPel                    : No\nFormat settings, GMC                     : No warppoints\nFormat settings, Matrix                  : Default (H.263)\nMuxing mode                              : Packed bitstream\nCodec ID                                 : XVID\nCodec ID/Hint                            : XviD\nDuration                                 : 1h 31mn\nBit rate                                 : 936 Kbps\nWidth                                    : 640 pixels\nHeight                                   : 352 pixels\nDisplay aspect ratio                     : 16:9\nFrame rate                               : 24.000 fps\nColor space                              : YUV\nChroma subsampling                       : 4:2:0\nBit depth                                : 8 bits\nScan type                                : Progressive\nCompression mode                         : Lossy\nBits/(Pixel*Frame)                       : 0.173\nStream size                              : 612 MiB (87%)\nWriting library                          : XviD 1.2.1 (UTC 2008-12-04)\n\nAudio\nID                                       : 1\nFormat                                   : MPEG Audio\nFormat version                           : Version 1\nFormat profile                           : Layer 3\nMode                                     : Joint stereo\nMode extension                           : MS Stereo\nCodec ID                                 : 55\nCodec ID/Hint                            : MP3\nDuration                                 : 1h 31mn\nBit rate mode                            : Constant\nBit rate                                 : 128 Kbps\nChannel(s)                               : 2 channels\nSampling rate                            : 44.1 KHz\nCompression mode                         : Lossy\nStream size                              : 83.6 MiB (12%)\nAlignment                                : Split accross interleaves\nInterleave, duration                     : 42 ms (1.00 video frame)\n\nPlot\nTodd (Labine) wants everything to be just perfect at the family cottage where he plans to propose to Cammie (Akerman). But things go awry with the arrival of Todd's slacker brother Salinger (Petronijevic) and his free-spirited girlfriend Masha (Punch). When Todd accidentally dispatches his irksome sibling with an axe, Cammie is determined not to let murder stand in the way of their happiness. \n\n &lt;a href=&quot;\nhttp://img24.imageshack.us/img24/8134/gi9.png&quot; rel=&quot;nofollow&quot; target=&quot;_NEW&quot;&gt;\nhttp://img24.imageshack.us/img24/8134/gi9.png&lt;/a&gt; &lt;a href=&quot;\nhttp://img835.imageshack.us/img835/5710/m0mb.png&quot; rel=&quot;nofollow&quot; target=&quot;_NEW&quot;&gt;\nhttp://img835.imageshack.us/img835/5710/m0mb.png&lt;/a&gt; &lt;a href=&quot;\nhttp://img585.imageshack.us/img585/4271/67oz.png&quot; rel=&quot;nofollow&quot; target=&quot;_NEW&quot;&gt;\nhttp://img585.imageshack.us/img585/4271/67oz.png&lt;/a&gt;","torrent":{"xt":"urn:btih:abee1d6d76c653fe48155a0f9c7f2d889b9a4058","amp;dn":"Cottage.Country.2013+BRRip+XViD+juggs","amp;tr":["udp%3A%2F%2Ftracker.openbittorrent.com%3A80","udp%3A%2F%2Fopen.demonii.com%3A1337","udp%3A%2F%2Ftracker.coppersurfer.tk%3A6969","udp%3A%2F%2Fexodus.desync.com%3A6969"],"infoHash":"abee1d6d76c653fe48155a0f9c7f2d889b9a4058","infoHashBuffer":{"type":"Buffer","data":[171,238,29,109,118,198,83,254,72,21,90,15,156,127,45,136,155,154,64,88]},"announce":[],"urlList":[]}}